{"title":"Dragon Hunters (PSP + Ipod touch + Zune)","uid":5652264,"size":323733572,"categoryP":"video","categoryS":"handheld","magnet":"?xt=urn:btih:97d66a3152699b6af218b1bd61c83c5eec5c1051&amp;dn=Dragon+Hunters+%28PSP+%2B+Ipod+touch+%2B+Zune%29&amp;tr=udp%3A%2F%2Ftracker.openbittorrent.com%3A80&amp;tr=udp%3A%2F%2Fopen.demonii.com%3A1337&amp;tr=udp%3A%2F%2Ftracker.coppersurfer.tk%3A6969&amp;tr=udp%3A%2F%2Fexodus.desync.com%3A6969","seeders":0,"leechers":0,"uploader":"on.off.on","files":-1,"time":1277673457,"description":"Dragon Hunters &lt;a href=&quot;\nhttp://www.imdb.com/title/tt0944834/&quot; rel=&quot;nofollow&quot; target=&quot;_NEW&quot;&gt;\nhttp://www.imdb.com/title/tt0944834/&lt;/a&gt;\n\nSource  :\n\nDragon Hunters.1080p.AC3(DD).5.1ch.Blu-ray.ps3.Akamaru415\n\n\nInfo    :\n\nID                               : 1\nFormat                           : AVC\nFormat/Info                      : Advanced Video Codec\nFormat profile                   : &lt;a class=&quot;__cf_email__&quot; href=&quot;/cdn-cgi/l/email-protection&quot; data-cfemail=&quot;f4b6958791989d9a91b4b8c6dac5&quot;&gt;[email&amp;#160;protected]&lt;/a&gt;&lt;script cf-hash='f9e31' type=&quot;text/javascript&quot;&gt;\n/* &lt;![CDATA[ */!function(){try{var t=&quot;currentScript&quot;in document?document.currentScript:function(){for(var t=document.getElementsByTagName(&quot;script&quot;),e=t.length;e--;)if(t[e].getAttribute(&quot;cf-hash&quot;))return t[e]}();if(t&amp;&amp;t.previousSibling){var e,r,n,i,c=t.previousSibling,a=c.getAttribute(&quot;data-cfemail&quot;);if(a){for(e=&quot;&quot;,r=parseInt(a.substr(0,2),16),n=2;a.length-n;n+=2)i=parseInt(a.substr(n,2),16)^r,e+=String.fromCharCode(i);e=document.createTextNode(e),c.parentNode.replaceChild(e,c)}}}catch(u){}}();/* ]]&gt; */&lt;/script&gt;\nFormat settings, CABAC           : No\nFormat settings, ReFrames        : 3 frames\nFormat settings, GOP             : M=1, N=7\nCodec ID                         : avc1\nCodec ID/Info                    : Advanced Video Coding\nDuration                         : 1h 21mn\nBit rate mode                    : Variable\nBit rate                         : 395 Kbps\nWidth                            : 480 pixels\nHeight                           : 272 pixels\nDisplay aspect ratio             : 16:9\nFrame rate mode                  : Variable\nFrame rate                       : 23.976 fps\nMinimum frame rate               : 11.987 fps\nMaximum frame rate               : 23.981 fps\nColor space                      : YUV\nChroma subsampling               : 4:2:0\nBit depth                        : 8 bits\nScan type                        : Progressive\nBits/(Pixel*Frame)               : 0.126\nStream size                      : 232 MiB (75%)\nWriting library                  : x264 core 79\n\nID                               : 2\nFormat                           : AAC\nFormat/Info                      : Advanced Audio Codec\nFormat version                   : Version 4\nFormat profile                   : LC\nFormat settings, SBR             : No\nCodec ID                         : 40\nDuration                         : 1h 21mn\nBit rate mode                    : Variable\nBit rate                         : 128 Kbps\nMaximum bit rate                 : 173 Kbps\nChannel(s)                       : 2 channels\nChannel positions                : Front: L R\nSampling rate                    : 48.0 KHz\nStream size                      : 75.0 MiB (24%)\n\n\nScreens :  &lt;a href=&quot;\nhttp://img294.imageshack.us/img294/9522/vlcsnap00001q.png&quot; rel=&quot;nofollow&quot; target=&quot;_NEW&quot;&gt;\nhttp://img294.imageshack.us/img294/9522/vlcsnap00001q.png&lt;/a&gt; &lt;a href=&quot;\nhttp://img19.imageshack.us/img19/7039/vlcsnap00002or.png&quot; rel=&quot;nofollow&quot; target=&quot;_NEW&quot;&gt;\nhttp://img19.imageshack.us/img19/7039/vlcsnap00002or.png&lt;/a&gt; &lt;a href=&quot;\nhttp://img693.imageshack.us/img693/7846/vlcsnap00003hr.png&quot; rel=&quot;nofollow&quot; target=&quot;_NEW&quot;&gt;\nhttp://img693.imageshack.us/img693/7846/vlcsnap00003hr.png&lt;/a&gt; &lt;a href=&quot;\nhttp://img691.imageshack.us/img691/7642/vlcsnap00004l.png&quot; rel=&quot;nofollow&quot; target=&quot;_NEW&quot;&gt;\nhttp://img691.imageshack.us/img691/7642/vlcsnap00004l.png&lt;/a&gt; &lt;a href=&quot;\nhttp://img251.imageshack.us/img251/7964/vlcsnap00005y.png&quot; rel=&quot;nofollow&quot; target=&quot;_NEW&quot;&gt;\nhttp://img251.imageshack.us/img251/7964/vlcsnap00005y.png&lt;/a&gt; &lt;a href=&quot;\nhttp://img121.imageshack.us/img121/3815/vlcsnap00006w.png&quot; rel=&quot;nofollow&quot; target=&quot;_NEW&quot;&gt;\nhttp://img121.imageshack.us/img121/3815/vlcsnap00006w.png&lt;/a&gt;\n\n\nPLEASE LET THE TORRENT SEED AND SHARE IT WITH ALL YOU KNOW!\n\nLet me know what I can do to be your trusted source of Handheld videos. &lt;a href=&quot;\nhttp://thepiratebay.se/user/on.off.on/&quot; rel=&quot;nofollow&quot; target=&quot;_NEW&quot;&gt;\nhttp://thepiratebay.se/user/on.off.on/&lt;/a&gt; -OOO","torrent":{"xt":"urn:btih:97d66a3152699b6af218b1bd61c83c5eec5c1051","amp;dn":"Dragon+Hunters+%28PSP+%2B+Ipod+touch+%2B+Zune%29","amp;tr":["udp%3A%2F%2Ftracker.openbittorrent.com%3A80","udp%3A%2F%2Fopen.demonii.com%3A1337","udp%3A%2F%2Ftracker.coppersurfer.tk%3A6969","udp%3A%2F%2Fexodus.desync.com%3A6969"],"infoHash":"97d66a3152699b6af218b1bd61c83c5eec5c1051","infoHashBuffer":{"type":"Buffer","data":[151,214,106,49,82,105,155,106,242,24,177,189,97,200,60,94,236,92,16,81]},"announce":[],"urlList":[]}}